# xmcd
#
# Track frame offsets: 
#        150
#        8475
#        14966
#        23203
#        33472
#        39451
#        45639
#        53036
#        58628
#        64508
#        70507
#        76462
#        85547
#        90688
#        96412
#        107687
#        113381
#        114878
#        119880
#        125643
#        134909
#        140996
#        154544
#        160499
#        165515
#        170187
#        179332
#        184466
#        192234
#        199065
#        204560
#        210496
#        216024
#        222184
#        227770
#        237952
#        243113
#        249117
#        254576
#        262972
#        273020
#        278626
#        287220
#        295610
#        303902
#        312728
#        322044
#
# Disc length: 4420 seconds
#
# Revision: 0
# Processed by: cddbd v1.5.2PL0 Copyright (c) Steve Scherf et al.
# Submitted via: ExactAudioCopy v0.99pb4
#
DISCID=b311422f
DTITLE=Chet Atkins - Radio Shows 1946-1947 (Shorty, Sue and Sally - Cart
DTITLE=er Family - Country Hoedown)
DYEAR=1900
DGENRE=Country
TTITLE0=Carry Me Back To old Virginny
TTITLE1=Chinatown, My Chinatown
TTITLE2=Sheik Of Araby
TTITLE3=Cold Cold War
TTITLE4=Liebestraum
TTITLE5=John Henry
TTITLE6=Sad Tennessee Tears
TTITLE7=My Gal Sal
TTITLE8=Tune In C
TTITLE9=Tune In C
TTITLE10=Songs Of The Islands
TTITLE11=Wednesday Night Waltz
TTITLE12=You Belong To My Heart
TTITLE13=On A Bicycle Built For Two
TTITLE14=Guitar Waltz
TTITLE15=Aunt Dinah's Quilting Party
TTITLE16=Everly Rag
TTITLE17=South
TTITLE18=Sweet Ala Lee
TTITLE19=If One Won't Another One Will
TTITLE20=Back To Old Smokey Mountain
TTITLE21=Money Marbles and Chalk
TTITLE22=Tune In B
TTITLE23=Deep River Blues
TTITLE24=Unknown Instrumental
TTITLE25=Jealous Hearted Woman Of Mine
TTITLE26=Blue Steel Blues
TTITLE27=Boogie
TTITLE28=You Little Sweet Little You
TTITLE29=I've Been Working On The Guitar
TTITLE30=Get Along Down Town
TTITLE31=Swing Low Sweet Chariot
TTITLE32=Tune In A
TTITLE33=Dizzy Strings
TTITLE34=My Little Pup With The Patent Leather Nose And A Wiggly Waggl
TTITLE34=y Tail
TTITLE35=When You And I Were Young Maggie
TTITLE36=Darling Nelly Grey
TTITLE37=Humoresque
TTITLE38=Alabama Jubilee
TTITLE39=San Antonio Rose
TTITLE40=Rainbow
TTITLE41=Five Foot Two
TTITLE42=Poor People Of Paris
TTITLE43=Country Gentleman
TTITLE44=Country Gentleman
TTITLE45=Poor People Of Paris
TTITLE46=Dance Of The Golden Rod
EXTD=
EXTT0=
EXTT1=
EXTT2=
EXTT3=
EXTT4=
EXTT5=
EXTT6=
EXTT7=
EXTT8=
EXTT9=
EXTT10=
EXTT11=
EXTT12=
EXTT13=
EXTT14=
EXTT15=
EXTT16=
EXTT17=
EXTT18=
EXTT19=
EXTT20=
EXTT21=
EXTT22=
EXTT23=
EXTT24=
EXTT25=
EXTT26=
EXTT27=
EXTT28=
EXTT29=
EXTT30=
EXTT31=
EXTT32=
EXTT33=
EXTT34=
EXTT35=
EXTT36=
EXTT37=
EXTT38=
EXTT39=
EXTT40=
EXTT41=
EXTT42=
EXTT43=
EXTT44=
EXTT45=
EXTT46=
PLAYORDER=
